<svg width="160" height="160" viewBox="0 0 160 160" fill="none" xmlns="http://www.w3.org/2000/svg">
<path d="M136.932 105.015C136.932 120.082 131.747 130.888 123.205 136.063C122.9 136.215 108.716 145.043 108.411 145.195C99.5649 150.065 105.208 138.955 91.7864 131.193C64.7904 115.516 42.8275 77.7711 42.8275 46.8748C42.8275 31.5028 28.6432 31.5028 37.3368 26.3281C37.6418 26.1759 53.5039 17.044 53.8089 16.8918C62.6551 12.1736 74.7042 13.0868 87.9734 20.6967C114.969 36.221 136.932 73.9662 136.932 105.015Z" fill="#1CA98E"/>
<path d="M120.918 114.451C120.918 145.347 98.9549 157.828 71.9589 142.303C44.9629 126.779 23 89.034 23 58.1377C23 27.2414 44.9629 14.609 71.9589 30.2854C98.9549 45.8096 120.918 83.5549 120.918 114.451Z" fill="#41BFA7"/>
<path d="M51.5465 79.5186L65.8011 111.142C66.2027 111.961 67.2065 112.063 67.8088 111.449L92.7042 84.738C93.8085 83.6123 93.7081 81.7701 92.6039 80.7467L84.1715 72.9687C82.8665 71.7406 80.8588 72.0477 79.9554 73.5828L66.5038 96.6097L59.9788 80.542C59.5773 79.6209 58.8746 79.0069 57.9711 78.9045L52.9519 77.8811C51.9481 77.6764 51.145 78.6999 51.5465 79.5186Z" fill="#FAF6FA"/>
</svg>
