<svg width="160" height="160" viewBox="0 0 160 160" fill="none" xmlns="http://www.w3.org/2000/svg">
<g clip-path="url(#clip0)">
<path d="M126 84.3948L37.0001 51.3398V117.45C36.6497 119.56 38.0512 121.67 40.504 123.076L100.772 158.241C106.028 161.406 115.138 161.054 121.095 157.538C124.248 155.779 126 153.318 126 151.208V84.3948Z" fill="#41BFA7"/>
<path d="M100.772 91.7787L40.5042 56.6139C35.2483 53.449 35.9491 48.1743 41.9058 45.0095C47.8625 41.493 56.9727 41.1413 62.2286 44.3062L122.496 79.1193C127.752 82.2842 127.051 87.5589 121.095 90.7237C115.138 94.2402 106.028 94.5919 100.772 91.7787Z" fill="#1CA98E"/>
<path d="M87.4568 3.51528C70.6379 -6.33087 49.6143 5.97682 49.6143 25.3175V52.746C49.6143 55.5592 53.4686 57.6691 58.0237 57.6691C62.5788 57.6691 66.4332 55.5592 66.4332 52.746V28.834C66.4332 20.746 75.193 15.4713 82.5513 19.6911C90.9607 24.6142 95.8662 33.4054 95.8662 42.8999V79.4713C95.8662 81.9329 99.7206 84.0427 104.276 84.0427C108.831 84.0427 112.335 81.9329 112.685 79.1197V46.4164C112.335 28.834 102.874 12.3065 87.4568 3.51528Z" fill="#DCEDE9"/>
<path d="M81.9787 104.838C81.9787 98.8544 78.0259 91.6735 72.8873 88.881C67.7487 86.0885 63.7959 88.4821 63.7959 94.0671C63.7959 98.0565 65.7723 102.445 68.5392 106.035V124.785L78.1507 131.084L77.6306 111.221C80.0023 111.221 81.9787 108.828 81.9787 104.838Z" fill="#1CA98E"/>
</g>
<defs>
<clipPath id="clip0">
<rect width="160" height="160" fill="white"/>
</clipPath>
</defs>
</svg>
