<svg width="160" height="173" viewBox="0 0 160 173" fill="none" xmlns="http://www.w3.org/2000/svg">
<g clip-path="url(#clip0)">
<path d="M129.896 60.9816C112.195 52.8496 94.4636 38.054 78.9467 18.4894L78.7427 18.3171C65.5053 24.2616 48.8027 23.0876 31.2544 14.561L30.4722 14.25L34.2275 45.7222C41.7986 94.5667 60.1559 114.258 90.9997 157.595L91.5949 157.923C116.865 140.999 133.35 137.621 132.478 91.9872L130.679 61.2926L129.896 60.9816Z" fill="#41BFA7"/>
<path d="M135.071 55.567C117.369 47.435 99.638 32.6394 84.1212 13.0748L83.9172 12.9025C70.6798 18.847 53.9771 17.673 36.4288 9.14645L35.6466 8.83542L30.6761 14.4221L31.0672 14.5777C48.8026 23.0875 65.3182 24.2783 78.5556 18.3337L78.7596 18.506C94.2764 38.0706 112.195 52.8495 129.709 60.9982L130.304 61.326L132.104 92.0205C133.054 121.648 126.191 133.499 114.381 142.744C129.271 132.081 138.175 119.857 137.636 86.3837L135.836 55.6891L135.071 55.567Z" fill="#D1DFDC"/>
<path d="M135.854 55.8783L135.258 55.5505C117.557 47.4186 99.8256 32.623 84.3087 13.0583L84.1047 12.8861L78.9302 18.3006L79.1342 18.4728C94.6511 38.0375 112.569 52.8164 130.084 60.965L130.679 61.2928L135.854 55.8783Z" fill="#D1DFDC"/>
<path d="M130.374 61.4991L131.974 91.8898C132.55 121.551 126.192 133.499 114.381 142.744C129.271 132.081 138.176 119.857 137.636 86.3832L135.837 55.6886L130.374 61.4991Z" fill="#C0D6D1"/>
<path d="M128.314 62.2662C111.207 54.462 93.68 39.8387 78.4009 20.8241L78.1969 20.6519C65.1466 26.5797 48.9884 25.1666 31.661 17.0012L31.0659 16.6734L26.2657 22.0545L26.6568 22.21C44.0011 30.5643 60.1424 31.7885 73.1926 25.8607L73.3966 26.033C88.6926 45.2364 106.016 59.6876 123.326 67.664L123.921 67.9918L125.654 97.9305C126.179 127.025 119.657 138.464 108.033 147.693C122.566 137.252 131.3 125.234 130.658 92.7217L128.926 62.7829L128.314 62.2662Z" fill="#41BFA7"/>
<path d="M128.909 62.5939L128.314 62.2661C111.207 54.4619 93.68 39.8386 78.4009 20.8241L78.1969 20.6518L73.2095 26.0496L73.4135 26.2218C88.6926 45.2363 106.016 59.6875 123.326 67.6639L123.921 67.9917L128.909 62.5939Z" fill="#41BFA7"/>
<path d="M123.921 67.9926L125.653 97.9314C126.179 127.026 119.656 138.465 108.033 147.694C122.566 137.253 131.3 125.235 130.658 92.7226L128.926 62.7838L123.921 67.9926Z" fill="#41BFA7"/>
<path d="M120.109 71.7599C102.407 63.6279 84.676 48.8323 69.1592 29.2677L68.9551 29.0954C55.5306 35.0567 39.0151 33.8659 21.2797 25.3561L20.6846 25.0283L24.4399 56.5005C32.011 105.345 50.3683 125.037 81.1953 168.184L81.7904 168.512C107.061 151.588 123.545 148.21 122.674 102.577L120.874 71.882L120.109 71.7599Z" fill="#DCEDE9"/>
<path d="M125.283 66.3453C107.582 58.2134 89.8504 43.4177 74.3336 23.8531L74.1296 23.6809C60.8922 29.6254 44.1895 28.4514 26.6412 19.9248L25.859 19.6137L20.8885 25.2005L21.2796 25.356C39.015 33.8659 55.5306 35.0566 68.768 29.1121L68.972 29.2843C84.4888 48.849 102.407 63.6278 119.922 71.7765L120.517 72.1043L122.317 102.799C122.892 132.46 116.03 144.311 104.236 153.745C119.126 143.082 128.03 130.858 127.491 97.3844L125.691 66.6898L125.283 66.3453Z" fill="#D1DFDC"/>
<path d="M126.065 66.6566L125.47 66.3289C107.769 58.1969 90.0375 43.4013 74.5206 23.8366L74.3166 23.6644L69.1421 29.0789L69.3461 29.2511C84.863 48.8158 102.781 63.5947 120.296 71.7433L120.891 72.0711L126.065 66.6566Z" fill="#D1DFDC"/>
<path d="M120.244 72.1625L122.377 102.554C122.953 132.215 115.979 143.308 104.782 153.205C119.673 142.542 128.405 130.824 127.866 97.3507L126.066 66.6561L120.244 72.1625Z" fill="#C0D6D1"/>
<path d="M76.3608 147.856C52.4841 114.944 40.6392 98.4799 34.6258 60.7337L32.2915 40.9434C46.1171 45.8028 59.0099 46.5554 70.2214 43.268C83.0369 57.9315 96.9091 69.6435 111.039 77.9042L112.199 97.228C112.908 132.591 102.902 138.818 83.2476 151.05C82.1756 151.718 81.1035 152.385 80.0315 153.052C78.7399 151.263 77.4484 149.473 76.3608 147.856Z" fill="#41BFA7"/>
<path d="M57.0524 84.9721L69.7974 113.428C70.1564 114.164 71.0539 114.256 71.5924 113.704L93.8512 89.6686C94.8385 88.6556 94.7488 86.998 93.7615 86.0771L86.2222 79.0784C85.0554 77.9733 83.2604 78.2496 82.4526 79.6309L70.4257 100.351L64.5917 85.893C64.2327 85.0642 63.6044 84.5116 62.7966 84.4195L58.309 83.4986C57.4114 83.3145 56.6934 84.2354 57.0524 84.9721Z" fill="#F5ECEC"/>
</g>
<defs>
<clipPath id="clip0">
<rect width="111.966" height="163.15" fill="white" transform="translate(19.3677 10.29) rotate(-5.10629)"/>
</clipPath>
</defs>
</svg>
